<mxfile host="app.diagrams.net" modified="2022-02-08T16:10:44.398Z" agent="5.0 (Windows NT 10.0; Win64; x64) AppleWebKit/537.36 (KHTML, like Gecko) Chrome/97.0.4692.99 Safari/537.36" etag="PPwP1FhJ6wjAKwB3S72z" version="16.2.7" type="github">
  <diagram id="lWYuDkxVYYNm2Wd7cw-b" name="Page-1">
    <mxGraphModel dx="2148" dy="714" grid="1" gridSize="10" guides="1" tooltips="1" connect="1" arrows="1" fold="1" page="1" pageScale="1" pageWidth="850" pageHeight="1100" math="0" shadow="0">
      <root>
        <mxCell id="0" />
        <mxCell id="1" parent="0" />
        <mxCell id="WemrvkvsaewKzRCJ1-O_-34" value="" style="whiteSpace=wrap;html=1;aspect=fixed;" vertex="1" parent="1">
          <mxGeometry x="10" y="310" width="730" height="730" as="geometry" />
        </mxCell>
        <mxCell id="WemrvkvsaewKzRCJ1-O_-19" style="edgeStyle=orthogonalEdgeStyle;rounded=0;orthogonalLoop=1;jettySize=auto;html=1;exitX=0.5;exitY=0.5;exitDx=0;exitDy=0;exitPerimeter=0;entryX=1;entryY=0.5;entryDx=0;entryDy=0;" edge="1" parent="1" source="WemrvkvsaewKzRCJ1-O_-21" target="WemrvkvsaewKzRCJ1-O_-9">
          <mxGeometry relative="1" as="geometry" />
        </mxCell>
        <mxCell id="WemrvkvsaewKzRCJ1-O_-21" value="Visitor" style="shape=umlActor;html=1;verticalLabelPosition=bottom;verticalAlign=top;align=center;" vertex="1" parent="1">
          <mxGeometry x="780" y="720" width="30" height="60" as="geometry" />
        </mxCell>
        <mxCell id="WemrvkvsaewKzRCJ1-O_-22" style="edgeStyle=orthogonalEdgeStyle;rounded=0;orthogonalLoop=1;jettySize=auto;html=1;exitX=0.5;exitY=0.5;exitDx=0;exitDy=0;exitPerimeter=0;entryX=0;entryY=0.5;entryDx=0;entryDy=0;" edge="1" parent="1" source="WemrvkvsaewKzRCJ1-O_-23" target="WemrvkvsaewKzRCJ1-O_-6">
          <mxGeometry relative="1" as="geometry" />
        </mxCell>
        <mxCell id="WemrvkvsaewKzRCJ1-O_-23" value="USICT System" style="shape=umlActor;html=1;verticalLabelPosition=bottom;verticalAlign=top;align=center;" vertex="1" parent="1">
          <mxGeometry x="-80" y="545" width="30" height="60" as="geometry" />
        </mxCell>
        <mxCell id="WemrvkvsaewKzRCJ1-O_-24" style="edgeStyle=orthogonalEdgeStyle;rounded=0;orthogonalLoop=1;jettySize=auto;html=1;exitX=0.5;exitY=1;exitDx=0;exitDy=0;entryX=0.5;entryY=0;entryDx=0;entryDy=0;" edge="1" parent="1" source="WemrvkvsaewKzRCJ1-O_-6" target="WemrvkvsaewKzRCJ1-O_-7">
          <mxGeometry relative="1" as="geometry" />
        </mxCell>
        <mxCell id="WemrvkvsaewKzRCJ1-O_-6" value="Crawl Institute webpages for data accumulation" style="shape=ellipse;html=1;strokeWidth=3;fontStyle=1;whiteSpace=wrap;align=center;perimeter=ellipsePerimeter;" vertex="1" parent="1">
          <mxGeometry x="140" y="535" width="190" height="70" as="geometry" />
        </mxCell>
        <mxCell id="WemrvkvsaewKzRCJ1-O_-29" value="Update Database" style="edgeStyle=orthogonalEdgeStyle;rounded=0;orthogonalLoop=1;jettySize=auto;html=1;exitX=1;exitY=0.5;exitDx=0;exitDy=0;entryX=0;entryY=0.5;entryDx=0;entryDy=0;entryPerimeter=0;" edge="1" parent="1" source="WemrvkvsaewKzRCJ1-O_-7" target="WemrvkvsaewKzRCJ1-O_-27">
          <mxGeometry relative="1" as="geometry" />
        </mxCell>
        <mxCell id="WemrvkvsaewKzRCJ1-O_-7" value="Calculate Additional Statistics" style="shape=ellipse;html=1;strokeWidth=3;fontStyle=1;whiteSpace=wrap;align=center;perimeter=ellipsePerimeter;" vertex="1" parent="1">
          <mxGeometry x="90" y="690" width="120" height="60" as="geometry" />
        </mxCell>
        <mxCell id="WemrvkvsaewKzRCJ1-O_-8" value="Export Dashboard Data" style="shape=ellipse;html=1;strokeWidth=3;fontStyle=1;whiteSpace=wrap;align=center;perimeter=ellipsePerimeter;" vertex="1" parent="1">
          <mxGeometry x="320" y="960" width="120" height="60" as="geometry" />
        </mxCell>
        <mxCell id="WemrvkvsaewKzRCJ1-O_-31" value="" style="edgeStyle=orthogonalEdgeStyle;rounded=0;orthogonalLoop=1;jettySize=auto;html=1;" edge="1" parent="1" source="WemrvkvsaewKzRCJ1-O_-9" target="WemrvkvsaewKzRCJ1-O_-8">
          <mxGeometry relative="1" as="geometry" />
        </mxCell>
        <mxCell id="WemrvkvsaewKzRCJ1-O_-9" value="View Dashboard" style="shape=ellipse;html=1;strokeWidth=3;fontStyle=1;whiteSpace=wrap;align=center;perimeter=ellipsePerimeter;" vertex="1" parent="1">
          <mxGeometry x="320" y="870" width="120" height="60" as="geometry" />
        </mxCell>
        <mxCell id="WemrvkvsaewKzRCJ1-O_-2" value="Notify information&amp;nbsp;&lt;br&gt;Update" style="shape=ellipse;html=1;strokeWidth=3;fontStyle=1;whiteSpace=wrap;align=center;perimeter=ellipsePerimeter;" vertex="1" parent="1">
          <mxGeometry x="210" y="350" width="140" height="60" as="geometry" />
        </mxCell>
        <mxCell id="WemrvkvsaewKzRCJ1-O_-3" value="Toggle Institute Status" style="shape=ellipse;html=1;strokeWidth=3;fontStyle=1;whiteSpace=wrap;align=center;perimeter=ellipsePerimeter;" vertex="1" parent="1">
          <mxGeometry x="220" y="440" width="120" height="60" as="geometry" />
        </mxCell>
        <mxCell id="WemrvkvsaewKzRCJ1-O_-4" value="Manage and Administrate &lt;br&gt;USCIT" style="shape=ellipse;html=1;strokeWidth=3;fontStyle=1;whiteSpace=wrap;align=center;perimeter=ellipsePerimeter;" vertex="1" parent="1">
          <mxGeometry x="410" y="420" width="160" height="60" as="geometry" />
        </mxCell>
        <mxCell id="WemrvkvsaewKzRCJ1-O_-5" value="Verify Contributors" style="shape=ellipse;html=1;strokeWidth=3;fontStyle=1;whiteSpace=wrap;align=center;perimeter=ellipsePerimeter;" vertex="1" parent="1">
          <mxGeometry x="400" y="550" width="120" height="60" as="geometry" />
        </mxCell>
        <mxCell id="WemrvkvsaewKzRCJ1-O_-12" style="edgeStyle=orthogonalEdgeStyle;rounded=0;orthogonalLoop=1;jettySize=auto;html=1;exitX=0.5;exitY=0.5;exitDx=0;exitDy=0;exitPerimeter=0;entryX=0;entryY=0.5;entryDx=0;entryDy=0;" edge="1" parent="1" source="WemrvkvsaewKzRCJ1-O_-14" target="WemrvkvsaewKzRCJ1-O_-2">
          <mxGeometry relative="1" as="geometry" />
        </mxCell>
        <mxCell id="WemrvkvsaewKzRCJ1-O_-13" style="edgeStyle=orthogonalEdgeStyle;rounded=0;orthogonalLoop=1;jettySize=auto;html=1;exitX=0.5;exitY=0.5;exitDx=0;exitDy=0;exitPerimeter=0;entryX=0;entryY=0.5;entryDx=0;entryDy=0;" edge="1" parent="1" source="WemrvkvsaewKzRCJ1-O_-14" target="WemrvkvsaewKzRCJ1-O_-3">
          <mxGeometry relative="1" as="geometry" />
        </mxCell>
        <mxCell id="WemrvkvsaewKzRCJ1-O_-14" value="Contributor" style="shape=umlActor;html=1;verticalLabelPosition=bottom;verticalAlign=top;align=center;" vertex="1" parent="1">
          <mxGeometry x="-50" y="405" width="30" height="60" as="geometry" />
        </mxCell>
        <mxCell id="WemrvkvsaewKzRCJ1-O_-15" style="edgeStyle=orthogonalEdgeStyle;rounded=0;orthogonalLoop=1;jettySize=auto;html=1;exitX=0.5;exitY=0.5;exitDx=0;exitDy=0;exitPerimeter=0;entryX=1;entryY=0.5;entryDx=0;entryDy=0;" edge="1" parent="1" source="WemrvkvsaewKzRCJ1-O_-18" target="WemrvkvsaewKzRCJ1-O_-4">
          <mxGeometry relative="1" as="geometry" />
        </mxCell>
        <mxCell id="WemrvkvsaewKzRCJ1-O_-16" style="edgeStyle=orthogonalEdgeStyle;rounded=0;orthogonalLoop=1;jettySize=auto;html=1;exitX=0.5;exitY=0.5;exitDx=0;exitDy=0;exitPerimeter=0;entryX=1;entryY=0.5;entryDx=0;entryDy=0;" edge="1" parent="1" source="WemrvkvsaewKzRCJ1-O_-18" target="WemrvkvsaewKzRCJ1-O_-5">
          <mxGeometry relative="1" as="geometry" />
        </mxCell>
        <mxCell id="WemrvkvsaewKzRCJ1-O_-18" value="Admin" style="shape=umlActor;html=1;verticalLabelPosition=bottom;verticalAlign=top;align=center;" vertex="1" parent="1">
          <mxGeometry x="770" y="530" width="30" height="60" as="geometry" />
        </mxCell>
        <mxCell id="WemrvkvsaewKzRCJ1-O_-25" value="Update Dashboard" style="shape=ellipse;html=1;strokeWidth=3;fontStyle=1;whiteSpace=wrap;align=center;perimeter=ellipsePerimeter;" vertex="1" parent="1">
          <mxGeometry x="330" y="790" width="120" height="60" as="geometry" />
        </mxCell>
        <mxCell id="WemrvkvsaewKzRCJ1-O_-30" value="" style="edgeStyle=orthogonalEdgeStyle;rounded=0;orthogonalLoop=1;jettySize=auto;html=1;" edge="1" parent="1" source="WemrvkvsaewKzRCJ1-O_-27" target="WemrvkvsaewKzRCJ1-O_-25">
          <mxGeometry relative="1" as="geometry" />
        </mxCell>
        <mxCell id="WemrvkvsaewKzRCJ1-O_-27" value="USICT&lt;br&gt;Database" style="shape=cylinder3;whiteSpace=wrap;html=1;boundedLbl=1;backgroundOutline=1;size=15;" vertex="1" parent="1">
          <mxGeometry x="360" y="670" width="60" height="80" as="geometry" />
        </mxCell>
      </root>
    </mxGraphModel>
  </diagram>
</mxfile>
